<?xml version="1.0" encoding="UTF-8"?>
<svg id="Group_1" data-name="Group 1" xmlns="http://www.w3.org/2000/svg" viewBox="0 0 3551.07 1098.02" fill="#ffffff">
  <g id="FUJI">
    <path d="M0,687.71h293.12v-211.43h509.36v-182.6h-509.36v-100.91h557.41V.56H0v687.15ZM1981.57,0h-285.78v379.86c1.63,120.3-65.65,109.2-182.14,110.83-117.03-1.63-199.29,14.27-198.2-106.03L1310.64,0h-285.24l4.8,402.63c-1.09,276.53,132.91,289.27,480.49,289.27s471.96-17.55,470.88-294.08V0ZM2748.6,375.37c1.63,120.3-41.54,118.5-158.57,120.13-116.49-1.63-158.57-1.43-158.57-52.86v-67.27h-283.51v91.3c0,247.07,255.28,221.04,442.08,221.04,208.48,0,442.08,30.91,442.08-245.07V.56h-283.51v374.81ZM3253.14.56v687.15h297.92V.56h-297.92Z"/>
  </g>
  <g id="Rectangle_1_copy" data-name="Rectangle 1 copy">
    <path d="M446.89,932.77l-365.2,24.03c-13.27,0-24.03,1.15-24.03,14.42s10.76,14.42,24.03,14.42l365.2,24.03c13.27,0,24.03-10.76,24.03-24.03v-28.83c0-13.27-10.76-24.03-24.03-24.03ZM3464.58,956.8l-365.2-24.03c-13.27,0-24.03,10.76-24.03,24.03v28.83c0,13.27,10.76,24.03,24.03,24.03l365.2-24.03c13.27,0,24.03-1.15,24.03-14.42s-10.76-14.42-24.03-14.42Z"/>
  </g>
  <g id="STUDIO">
    <path d="M901.38,971.98c-10.15-7.35-24.07-14.84-41.77-22.49-14.54-6.21-25.62-11.74-33.24-16.57-7.63-4.84-13.06-9.79-16.3-14.87-3.24-5.08-4.86-11.08-4.86-18.01s1.87-12.39,5.61-17.11c3.74-4.72,8.85-8.27,15.33-10.66,6.48-2.39,13.82-3.58,22.02-3.58,9.64,0,17.63,1.32,23.96,3.94,6.33,2.63,11.62,6.72,15.87,12.27,4.24,5.55,7.73,13.05,10.47,22.49h29.57v-51.96c-14.97-2.87-28.28-4.87-39.93-6-11.66-1.13-23.89-1.7-36.7-1.7-21.88,0-41.12,2.66-57.74,7.97-16.62,5.32-29.32,13.11-38.1,23.38-8.78,10.27-13.17,22.75-13.17,37.45,0,8.96,1.76,17.02,5.29,24.19,3.52,7.17,8.49,13.77,14.89,19.8,6.4,6.03,14.14,11.56,23.2,16.57,9.07,5.02,19.21,9.85,30.44,14.51,13.09,5.5,23.31,10.69,30.65,15.59,7.34,4.9,12.66,10.06,15.97,15.5,3.31,5.44,4.96,11.86,4.96,19.26,0,8-2.05,14.66-6.15,19.98-4.1,5.32-9.53,9.17-16.3,11.56-6.77,2.39-14.39,3.58-22.88,3.58-16.26,0-28.6-3.49-37.02-10.48-8.42-6.99-14.43-17.59-18.02-31.8h-29.57v55.18c13.96,2.63,28.89,4.63,44.79,6,15.9,1.37,31.19,2.06,45.87,2.06,20.58,0,38.71-2.89,54.4-8.69,15.68-5.79,27.63-14.09,35.83-24.9,8.2-10.81,12.3-23.56,12.3-38.25,0-11.47-2.41-21.53-7.23-30.19-4.82-8.66-12.3-16.66-22.45-24.01ZM1061.55,913.48h29.57c1.58-5.37,3.6-11.08,6.04-17.11,2.45-6.03,5.36-10.84,8.74-14.42,3.38-3.58,7.37-6.21,11.98-7.88,4.6-1.67,11.22-2.51,19.86-2.51h17.48v178.63c0,5.73-.22,10.54-.65,14.42-.43,3.88-1.51,7.08-3.24,9.59-1.73,2.51-4.35,4.45-7.88,5.82-3.53,1.37-8.31,2.48-14.35,3.31v11.82h119.15v-11.82c-5.04-.6-9.03-1.4-11.98-2.42-2.95-1.01-5.25-2.15-6.91-3.4-1.66-1.25-3.06-2.89-4.21-4.93-1.15-2.03-1.94-4.69-2.37-7.97-.43-3.28-.65-8.09-.65-14.42v-178.63h15.54c5.9,0,10.69.27,14.35.81,3.67.54,6.73,1.34,9.17,2.42,2.45,1.08,4.75,2.51,6.91,4.3s4.21,4.03,6.15,6.72c1.94,2.69,3.7,5.94,5.29,9.76,1.58,3.82,3.74,9.8,6.48,17.92h29.57v-62.89h-254.07v62.89ZM1623.98,862.42c7.91,1.79,13.24,3.76,15.97,5.91,2.73,2.15,4.57,4.99,5.5,8.51.93,3.52,1.4,9.76,1.4,18.72v114.31c0,17.44-1.48,30.55-4.43,39.33-2.95,8.78-8.02,15.62-15.22,20.51-7.2,4.9-18.13,7.35-32.81,7.35-10.65,0-19.36-1.49-26.12-4.48-6.77-2.98-12.05-7.26-15.87-12.81-3.81-5.55-6.44-12.21-7.88-19.98-1.44-7.76-2.16-16.36-2.16-25.8v-118.25c0-6.69.29-11.76.86-15.23.57-3.46,1.58-6.27,3.02-8.42,1.44-2.15,3.56-3.97,6.37-5.46,2.81-1.49,7.16-2.89,13.06-4.21v-11.82h-113.33v11.82c5.47,1.2,9.75,2.54,12.84,4.03,3.09,1.49,5.4,3.43,6.91,5.82,1.51,2.39,2.45,5.5,2.81,9.32.36,3.82.54,8.54.54,14.15v115.92c0,16.01,2.12,29.09,6.37,39.24,4.24,10.15,10.79,18.78,19.64,25.89,8.85,7.11,20.32,12.42,34.43,15.95,14.1,3.52,31.37,5.29,51.81,5.29,13.96,0,26.55-.9,37.78-2.69,11.22-1.79,21.33-4.78,30.33-8.96,8.99-4.18,16.51-9.67,22.56-16.48,6.04-6.81,10.5-15.2,13.38-25.17,2.88-9.97,4.32-22.36,4.32-37.18v-111.98c0-5.73.22-10.48.65-14.24.43-3.76,1.44-6.87,3.02-9.32,1.58-2.45,3.89-4.36,6.91-5.73,3.02-1.37,7.12-2.66,12.3-3.85v-11.82h-94.98v11.82ZM2107.51,893.87c-7.7-9.25-17.81-17.23-30.33-23.92-12.52-6.69-26.84-11.58-42.96-14.69-16.12-3.1-36.19-4.66-60.22-4.66h-112.25v11.82c5.47,1.2,9.75,2.54,12.84,4.03,3.09,1.49,5.4,3.43,6.91,5.82,1.51,2.39,2.45,5.5,2.81,9.32.36,3.82.54,8.54.54,14.15v154.44c0,5.73-.22,10.48-.65,14.24-.43,3.76-1.4,6.87-2.91,9.32-1.51,2.45-3.81,4.36-6.91,5.73-3.1,1.37-7.31,2.66-12.63,3.85v11.82h98c23.17,0,42.38-1.07,57.63-3.22,17.7-2.51,33.35-6.81,46.95-12.9,13.6-6.09,25.07-13.85,34.43-23.29,10.5-10.51,18.38-23.17,23.64-37.98,5.25-14.81,7.88-31.53,7.88-50.17,0-15.41-1.87-29.23-5.61-41.48-3.74-12.24-9.46-22.99-17.16-32.25ZM2053.01,1024.39c-4.75,13.14-11.8,23.83-21.15,32.07-5.61,5.02-12.45,8.96-20.51,11.82-10.79,3.82-24.11,5.73-39.93,5.73-10.51,0-17.05-.18-19.64-.54v-201.56c3.89-.24,10.29-.36,19.21-.36,18.56,0,34.5,3.56,47.81,10.66,13.31,7.11,23.64,18.16,30.98,33.15,7.34,14.99,11.01,33.83,11.01,56.53,0,20.67-2.59,38.16-7.77,52.5ZM2279.34,862.42c5.47,1.2,9.75,2.51,12.84,3.94,3.09,1.43,5.4,3.38,6.91,5.82,1.51,2.45,2.45,5.53,2.81,9.23.36,3.7.54,8.42.54,14.15v154.62c0,5.73-.22,10.48-.65,14.24-.43,3.76-1.4,6.87-2.91,9.32-1.51,2.45-3.81,4.36-6.91,5.73-3.1,1.37-7.31,2.66-12.63,3.85v11.82h113.33v-11.82c-4.18-.83-7.7-1.82-10.58-2.96-2.88-1.13-5.15-2.48-6.8-4.03-1.66-1.55-2.91-3.46-3.78-5.73-.86-2.27-1.44-5.2-1.73-8.78-.29-3.58-.43-7.46-.43-11.65v-154.44c0-6.69.29-11.76.86-15.23.57-3.46,1.58-6.27,3.02-8.42,1.44-2.15,3.56-3.97,6.37-5.46,2.81-1.49,7.16-2.89,13.06-4.21v-11.82h-113.33v11.82ZM2771.4,878.46c-21.59-20.48-53.89-30.73-96.92-30.73-27.63,0-51.45,4.96-71.45,14.87-20,9.92-35.15,24.4-45.44,43.45-10.29,19.05-15.43,42.01-15.43,68.89,0,40.97,10.61,71.73,31.84,92.27,21.23,20.55,52.99,30.82,95.3,30.82,20.29,0,38.67-2.45,55.15-7.35,16.48-4.9,30.61-12.54,42.42-22.93,11.8-10.39,20.9-23.68,27.31-39.86,6.4-16.18,9.61-35.56,9.61-58.14,0-40.37-10.79-70.8-32.38-91.28ZM2731.79,1017.22c-2.09,12.18-5.54,22.73-10.36,31.62-4.82,8.9-11.12,15.83-18.89,20.78-7.77,4.96-17.2,7.44-28.28,7.44-21.44,0-37.38-8.81-47.81-26.43-10.44-17.62-15.65-44.46-15.65-80.53s5.07-60.05,15.22-76.59c10.15-16.54,25.65-24.81,46.52-24.81,14.25,0,25.94,4.09,35.08,12.27,9.14,8.18,15.97,20.31,20.51,36.37,4.53,16.07,6.8,35.98,6.8,59.75,0,14.57-1.05,27.95-3.13,40.13Z"/>
  </g>
</svg>