<?xml version="1.0" encoding="UTF-8"?>
<svg id="Layer_1" data-name="Layer 1" xmlns="http://www.w3.org/2000/svg" viewBox="0 0 965.21 985.49">
  <defs>
    <style>
      .cls-1 {
        fill: #fff;
      }

      .cls-2 {
        fill: #f89939;
      }
    </style>
  </defs>
  <path class="cls-2" d="M328.68,213.8c48.59-2.39,79.65,13.61,124.46,22,45.53,8.53,79.43-8.76,122.24-17.65,120.4-25.02,236.31,49.83,281.2,160.04,40.12,98.5,26.8,223.14-1.83,323.35-30.21,105.73-131.59,258.38-247.03,280.15-46.81,8.83-64.01-9.16-105.01-17.63-49.77-10.28-80.32,22.25-126.73,20.05-97.17-4.61-187.99-114.16-229.91-193.7-53.5-101.53-81.03-256.84-53.02-368.95,29.48-112.11,115.15-201.73,235.63-207.66Z"/>
  <g>
    <path class="cls-1" d="M508.26,744.81l33.66-140.84,41.18-187.71c7.38-20.96,35.6-22.75,42.21-.31,10.86,37.37,20.75,75.02,31.57,112.4,7.07,24.41,13.91,49.14,22.25,73.04l268.72.57c21.64,4.87,24.24,37.95,1.1,42.4l-287.97.04c-10.54-1.33-15.84-5.98-19.59-15.62-14.22-36.54-20.88-79.79-32.98-117.21-.35-1.09-.26-3.13-1.75-2.88-21.79,112.81-51.51,223.89-75.47,336.24-4.65,22.76-36.34,28.29-44.18,4.51l-85.45-388.39c-1.6-.02-1.45,3.64-1.72,5-20.25,104.19-44.3,207.45-66.92,311.12-6.2,15.95-26.5,21.16-38.57,8.08-7.83-8.49-17.77-49.17-22.23-62.7-13.85-42.05-28.55-83.82-42.49-125.82-2.38-.49-1.66.26-2.32,1.32-3.94,6.26-6.62,16.43-10.59,23.55-6.66,11.93-15.58,23.11-30.07,24.83l-167.68-.08c-23.32-4.86-26.4-37.57-2.07-43.32l152.21-.04c6.24.6,8.3-6.03,11.01-10.74,12.93-22.48,23.38-46.47,37.12-68.53,14.89-10.45,29.5-5.67,36.74,10.88,21.03,48.11,33.83,104.67,51.85,154.26.43,1.18,1.09,4.17,2.54,4.18,6.11-32.23,13.2-64.28,20.19-96.33,17.27-79.18,34.06-158.87,53.72-237.32,6.21-10.93,22.87-13.79,32.71-6.51,5.44,4.03,7.46,11.37,9.31,17.62,14.65,49.61,23.19,106.8,34.77,157.88,16.35,72.14,34.42,144.03,49.22,216.45Z"/>
    <path class="cls-1" d="M86.19,570.82c-2.62-.8-3.32-12.91-3.61-16.06-13.96-148.34,57.91-312,217.3-338.86,66.78-11.25,95.26,8.16,155.51,18.87,55.49,9.87,96.07-18.95,147.58-22.35,190.84-12.59,303.67,173.44,279.04,347.39-.41,2.89-.59,7.01-2.46,8.94h-43.5c-1.42,0-1.6-3.48-1.65-4.66-.49-11.08,2.9-27.43,3.25-39.32,3.42-115.3-51.8-230.99-170.72-260.23-63.51-15.61-100.38,7.14-159.52,18.02-59.83,11-112.93-26.23-170.62-24.58-116.95,3.35-192.31,105.43-205.41,214.06-3.77,31.29-1.21,58.05-.09,88.89.07,1.89.51,9.89-1.59,9.89h-43.5Z"/>
    <path class="cls-1" d="M860.91,676.46c1.84.56,1.5,2.95,1.34,4.37-3.56,32.32-29.06,86.59-44.82,115.79-43.79,81.12-142.25,196.56-244.44,188.46-27.15-2.15-54.07-19.95-81.79-21.78-42.98-2.84-74.39,24.81-118.11,21.79-122.95-8.49-244.8-187.5-267.24-298.27-.5-2.49-2.39-8.61-1.1-10.44,2.23-3.15,39.87,1.08,46.02.21,27.99,89.46,76.55,175.59,154.14,230.63,31.9,22.63,61.7,35.77,101.83,26.61,21.86-4.99,41.31-15.56,64.69-17.14,68-4.58,98.3,44.12,169.7,3.98,70.23-39.48,125.23-118.31,155.53-191.44,6.45-15.58,11.35-34.65,18.11-49.22.43-.93,1.85-3.57,2.64-3.57h43.5Z"/>
    <path class="cls-1" d="M718.28,2.46c2.51,2.34-4.17,33.81-5.46,39.12-22.4,91.86-97.24,156.11-192.62,160.56-14.53.68-36.6.98-50.73-1.14-1.51-.23-3.16-.89-4.25-1.96-2.23-2.2-8.06-23.13-10.05-28.27-14.8-38.16-37.63-71.73-70.88-95.87-8.62-6.26-21.23-10.27-24.47-21.1-9.63-32.1,25.78-44.05,48.94-28.22,23.46,16.03,52.14,79.29,62.23,106.59,2.79,7.54,4.69,15.99,7.76,23.32.41.99.1,2.37,1.53,2.07,7.58-41.42,33.73-79.1,64.72-106.7C580.33,19.38,627.26,2.38,674.44.09c5.84-.28,41.29-.01,43.84,2.36Z"/>
  </g>
</svg>