<?xml version="1.0" encoding="UTF-8" standalone="no"?>
<!DOCTYPE svg PUBLIC "-//W3C//DTD SVG 1.1//EN" "http://www.w3.org/Graphics/SVG/1.1/DTD/svg11.dtd">
<svg xmlns="http://www.w3.org/2000/svg" version="1.1" viewBox="0.00 0.00 930.00 949.00">
<path fill="#2B8C71" d="
  M 691.46 2.15
  A 1.34 1.34 0.0 0 1 692.17 3.47
  Q 688.73 37.48 676.44 69.21
  C 661.43 107.97 633.48 140.70 598.25 162.74
  Q 553.53 190.73 499.60 192.44
  Q 478.66 193.11 453.58 191.54
  C 449.81 191.31 448.71 190.14 447.66 186.45
  C 434.64 140.60 407.89 93.32 366.79 67.24
  Q 366.50 67.05 355.47 60.08
  Q 353.59 58.89 351.30 56.61
  C 347.12 52.44 346.36 43.25 346.88 37.89
  Q 348.07 25.68 359.23 21.17
  Q 379.49 12.98 395.76 27.04
  Q 404.08 34.22 411.33 45.19
  Q 443.00 93.13 460.14 149.10
  Q 460.65 150.77 461.84 151.88
  A 1.18 1.18 0.0 0 0 463.80 151.27
  C 472.09 113.64 492.70 81.14 520.40 54.81
  Q 569.46 8.18 638.16 1.64
  Q 662.99 -0.73 688.02 1.63
  C 689.33 1.75 690.49 1.65 691.46 2.15
  Z"
/>
<path fill="#2B8C71" d="
  M 124.96 547.27
  A 2.51 2.51 0.0 0 1 122.60 548.96
  Q 112.43 549.07 85.07 548.96
  C 82.49 548.95 81.88 546.75 81.61 544.42
  Q 79.65 527.84 79.43 502.09
  Q 79.00 452.89 90.63 405.85
  C 109.46 329.75 155.05 264.24 226.16 229.23
  Q 277.71 203.86 335.50 205.53
  Q 351.05 205.97 369.56 209.20
  Q 378.57 210.77 399.50 216.82
  Q 418.82 222.41 438.52 226.68
  C 481.35 235.97 522.47 215.95 565.76 207.75
  C 596.13 201.99 628.90 205.46 659.34 213.22
  C 724.59 229.86 778.80 274.67 811.93 332.67
  Q 828.63 361.91 839.07 399.42
  C 852.28 446.92 855.16 496.70 848.55 545.55
  A 1.11 1.10 -86.1 0 1 847.46 546.51
  L 807.65 546.50
  A 1.44 1.43 3.5 0 1 806.22 544.89
  Q 808.00 530.16 808.83 510.76
  Q 810.60 469.43 803.33 431.70
  Q 789.89 361.88 742.29 310.23
  C 711.39 276.71 666.34 254.93 621.55 248.96
  Q 600.74 246.18 578.00 248.88
  Q 570.14 249.81 544.37 256.69
  Q 518.67 263.56 488.98 270.24
  C 479.96 272.27 473.46 272.92 464.75 272.72
  C 450.37 272.40 437.76 269.60 422.78 265.97
  Q 400.13 260.50 359.50 250.05
  Q 347.73 247.03 329.84 246.97
  Q 306.30 246.90 283.20 252.90
  Q 239.21 264.35 206.33 292.59
  C 159.30 332.98 132.77 392.53 125.12 453.16
  Q 119.54 497.29 125.02 545.75
  Q 125.14 546.76 124.96 547.27
  Z"
/>
<path fill="#2B8C71" d="
  M 930.00 601.76
  L 930.00 602.87
  Q 928.46 616.78 915.10 619.91
  A 3.18 2.88 35.3 0 1 914.36 620.00
  Q 650.84 619.99 644.72 620.01
  C 633.80 620.05 623.69 617.61 620.08 605.98
  Q 603.67 553.12 587.14 489.61
  Q 586.98 488.99 586.49 488.71
  A 1.61 1.60 -69.8 0 0 584.12 489.81
  C 581.07 505.85 576.58 528.36 572.25 546.97
  Q 544.95 664.21 520.93 769.17
  Q 513.29 802.59 511.73 809.89
  Q 509.62 819.75 507.30 822.87
  Q 503.45 828.06 498.06 830.56
  C 489.34 834.61 478.92 832.05 473.42 824.27
  Q 471.31 821.28 468.82 809.77
  Q 431.67 638.30 388.27 444.74
  Q 387.88 442.98 386.96 442.16
  A 1.18 1.17 -64.3 0 0 385.02 442.84
  C 379.63 473.80 373.55 504.44 366.36 536.58
  Q 341.72 646.85 319.17 749.63
  A 4.54 4.48 65.9 0 1 318.71 750.86
  Q 314.88 757.86 307.53 761.30
  C 302.19 763.80 294.86 763.23 289.62 759.91
  Q 281.92 755.04 279.43 747.15
  Q 245.14 638.45 221.43 574.23
  A 1.00 0.93 -86.2 0 0 221.03 573.74
  C 219.34 572.69 218.32 573.84 217.66 575.42
  Q 212.83 586.94 208.41 595.87
  C 203.34 606.13 196.47 615.92 185.82 620.08
  Q 181.89 621.61 174.32 621.57
  Q 162.03 621.50 153.75 621.37
  Q 130.71 621.00 34.60 621.51
  C 23.75 621.57 14.06 623.68 5.95 614.81
  C -3.01 605.01 -0.32 588.89 12.17 583.56
  Q 15.42 582.17 25.52 582.23
  Q 114.85 582.70 164.25 582.43
  C 167.74 582.41 169.68 579.94 171.34 576.81
  Q 200.51 522.09 208.12 508.25
  Q 211.32 502.42 218.50 501.26
  Q 231.22 499.21 238.54 507.24
  Q 241.21 510.16 245.50 522.15
  Q 274.79 603.96 293.73 665.53
  Q 294.55 668.17 295.99 669.92
  A 0.89 0.89 0.0 0 0 297.55 669.54
  Q 329.83 519.65 365.95 357.44
  Q 367.78 349.21 369.80 346.16
  Q 376.23 336.46 389.48 337.04
  Q 396.85 337.35 402.55 344.20
  Q 403.26 345.06 405.35 350.00
  Q 406.56 352.88 407.35 356.13
  C 420.51 410.71 432.07 469.80 445.07 525.83
  Q 466.00 616.02 475.80 658.97
  Q 486.76 707.01 489.27 718.84
  Q 489.54 720.14 490.46 720.12
  A 1.06 1.05 -83.9 0 0 491.46 719.31
  Q 529.32 563.41 562.87 403.90
  Q 565.11 393.25 574.02 388.85
  Q 581.30 385.24 588.72 386.98
  C 596.85 388.88 600.96 397.08 603.04 404.69
  Q 628.80 499.20 652.58 578.43
  Q 653.40 581.17 656.50 581.18
  Q 788.77 581.47 825.00 581.17
  C 843.46 581.01 869.68 580.89 904.98 580.97
  Q 912.91 580.99 916.83 582.41
  Q 928.96 586.81 930.00 601.76
  Z"
/>
<path fill="#2B8C71" d="
  M 465.69 885.00
  C 480.64 885.01 495.38 887.92 509.99 892.52
  C 521.07 896.00 532.91 900.71 543.50 902.89
  C 567.84 907.91 592.43 903.47 614.11 891.59
  Q 632.00 881.79 650.33 867.32
  C 698.87 828.97 737.23 777.14 762.22 720.73
  Q 776.79 687.80 787.83 654.40
  A 1.33 1.32 9.1 0 1 789.09 653.49
  L 830.18 653.49
  A 0.58 0.58 0.0 0 1 830.75 654.20
  C 827.08 670.79 822.87 686.72 816.51 703.49
  C 788.46 777.47 743.73 845.79 683.08 896.82
  C 645.92 928.08 594.82 955.32 544.80 947.37
  Q 537.89 946.27 527.91 942.89
  C 507.65 936.04 487.33 927.27 465.65 927.25
  C 443.97 927.23 423.63 935.96 403.37 942.78
  Q 393.38 946.14 386.46 947.23
  C 336.43 955.09 285.38 927.76 248.28 896.43
  C 187.72 845.29 143.11 776.89 115.19 702.86
  C 108.86 686.08 104.68 670.14 101.04 653.55
  A 0.58 0.58 0.0 0 1 101.61 652.84
  L 142.70 652.91
  A 1.33 1.32 -9.0 0 1 143.96 653.82
  Q 154.94 687.24 169.45 720.20
  C 194.34 776.65 232.61 828.55 281.08 866.99
  Q 299.38 881.49 317.25 891.32
  C 338.91 903.24 363.50 907.73 387.84 902.75
  C 398.44 900.59 410.29 895.90 421.37 892.44
  C 435.99 887.87 450.74 884.99 465.69 885.00
  Z"
/>
</svg>